<svg xmlns="http://www.w3.org/2000/svg" xmlns:xlink="http://www.w3.org/1999/xlink"><symbol id="arrow_category-symbol" viewBox="0 0 16 16"><title>arrow_category</title><path d="m12 9-4 4-4-4h8zM8 3l4 4H4l4-4z"/></symbol><use xlink:href="#arrow_category-symbol" width="16" height="16"/><view id="arrow_category" viewBox="0 0 16 16"/><symbol id="arrow_down_s-symbol" viewBox="0 0 16 16"><title>arrow_down_s</title><path d="m3.76 6.23.7-.7L8 9.06l3.54-3.53.7.7L8 10.47 3.76 6.23z"/></symbol><use xlink:href="#arrow_down_s-symbol" y="16" width="16" height="16"/><view id="arrow_down_s" viewBox="0 16 16 16"/><symbol id="arrow_left_s-symbol" viewBox="0 0 16 16"><title>arrow_left_s</title><path d="m9.77 12.24.7-.7L6.94 8l3.53-3.54-.7-.7L5.53 8l4.24 4.24z"/></symbol><use xlink:href="#arrow_left_s-symbol" y="32" width="16" height="16"/><view id="arrow_left_s" viewBox="0 32 16 16"/><symbol fill="none" id="arrow_prev-symbol" viewBox="0 0 20 17"><title>arrow_prev</title><path fill-rule="evenodd" clip-rule="evenodd" d="M20 8H1.889L9 .69 8.293 0 0 8.488l.013.012L0 8.512 8.293 17 9 16.31 1.889 9H20V8Z" fill="#000" fill-opacity=".68"/></symbol><use fill="none" xlink:href="#arrow_prev-symbol" y="48" width="20" height="17"/><view id="arrow_prev" viewBox="0 48 20 17"/><symbol id="arrow_right_s-symbol" viewBox="0 0 16 16"><title>arrow_right_s</title><path d="m6.23 12.24-.7-.7L9.06 8 5.53 4.46l.7-.7L10.47 8l-4.24 4.24z"/></symbol><use xlink:href="#arrow_right_s-symbol" y="65" width="16" height="16"/><view id="arrow_right_s" viewBox="0 65 16 16"/><symbol id="arrow_up_s-symbol" viewBox="0 0 16 16"><title>arrow_up_s</title><path d="m3.76 9.77.7.7L8 6.94l3.54 3.53.7-.7L8 5.53 3.76 9.77z"/></symbol><use xlink:href="#arrow_up_s-symbol" y="81" width="16" height="16"/><view id="arrow_up_s" viewBox="0 81 16 16"/><symbol id="arrow_updown_s-symbol" viewBox="0 0 16 16"><title>arrow_updown_s</title><path d="m12 9-4 4-4-4h8zM8 3l4 4H4l4-4z" fill="currentColor" fill-rule="evenodd"/></symbol><use xlink:href="#arrow_updown_s-symbol" y="97" width="16" height="16"/><view id="arrow_updown_s" viewBox="0 97 16 16"/><symbol id="arrow_view_recent-symbol" viewBox="0 0 22 22"><title>arrow_view_recent</title><path d="m6.45 10.99 9.528-9.283L15.253 1 5 10.99 15.275 21l.725-.707z"/></symbol><use xlink:href="#arrow_view_recent-symbol" y="113" width="22" height="22"/><view id="arrow_view_recent" viewBox="0 113 22 22"/><symbol id="bookmark_fill-symbol" viewBox="0 0 22 22"><title>bookmark_fill</title><path d="m11 16.1 5.56 2.9-1.06-6.15L20 8.49l-6.22-.89L11 2 8.22 7.6 2 8.49l4.5 4.36L5.44 19 11 16.1z"/></symbol><use xlink:href="#bookmark_fill-symbol" y="135" width="22" height="22"/><view id="bookmark_fill" viewBox="0 135 22 22"/><symbol id="bookmark-symbol" viewBox="0 0 22 22"><title>bookmark</title><path d="M11 4.25 12.89 8l.23.47.52.08 4.2.6-3 2.94-.38.37.09.52.72 4.16-3.77-2L11 15l-.46.24-3.77 2L7.49 13l.09-.52-.38-.37-3-2.94 4.2-.6.52-.08.19-.49L11 4.25M11 2 8.22 7.6 2 8.49l4.5 4.36L5.44 19 11 16.1l5.56 2.9-1.06-6.15L20 8.49l-6.22-.89L11 2z"/></symbol><use xlink:href="#bookmark-symbol" y="157" width="22" height="22"/><view id="bookmark" viewBox="0 157 22 22"/><symbol id="btn_submit-symbol" viewBox="0 0 22 22"><title>btn_submit</title><path d="M9.54 15.25a.51.51 0 0 1-.71 0 .5.5 0 0 1 0-.71l7.79-7.79a.51.51 0 0 1 .71 0 .51.51 0 0 1 0 .71z"/><path d="M9.53 14.54a.51.51 0 0 1 0 .71.51.51 0 0 1-.71 0L4.67 11.1a.5.5 0 0 1 0-.7.5.5 0 0 1 .71 0z"/></symbol><use xlink:href="#btn_submit-symbol" y="179" width="22" height="22"/><view id="btn_submit" viewBox="0 179 22 22"/><symbol id="btn_write_round-symbol" viewBox="0 0 26 26"><title>btn_write_round</title><path d="M23 23.5a.51.51 0 0 1-.5.5h-15a.51.51 0 0 1-.5-.5.51.51 0 0 1 .5-.5h15a.51.51 0 0 1 .5.5zM19.55 3a.44.44 0 0 1 .31.13l2 2a.42.42 0 0 1 0 .61l-14 14-3.04 1.17h-.06a.92.92 0 0 1-.34.07.38.38 0 0 1-.3-.12c-.23-.22-.07-.6-.06-.63l1.22-3.13 14-14a.44.44 0 0 1 .3-.13m0-1a1.39 1.39 0 0 0-1 .42L4.42 16.54l-1.26 3.28a1.63 1.63 0 0 0 .25 1.77 1.38 1.38 0 0 0 1 .41 2 2 0 0 0 .76-.16l3.28-1.26L22.58 6.45a1.41 1.41 0 0 0 0-2l-2-2a1.4 1.4 0 0 0-1-.42z"/></symbol><use xlink:href="#btn_write_round-symbol" y="201" width="26" height="26"/><view id="btn_write_round" viewBox="0 201 26 26"/><symbol id="card-symbol" viewBox="0 0 22 22"><title>card</title><path d="M9 4v5H4V4h5m1-1H3v7h7V3zm8 1v5h-5V4h5m1-1h-7v7h7V3zM9 13v5H4v-5h5m1-1H3v7h7v-7zm8 1v5h-5v-5h5m1-1h-7v7h7v-7z"/></symbol><use xlink:href="#card-symbol" y="227" width="22" height="22"/><view id="card" viewBox="0 227 22 22"/><symbol id="caret_down_fill-symbol" viewBox="0 0 16 16"><title>caret_down_fill</title><path d="m8.38 11.557 4.913-5.732a.5.5 0 0 0-.38-.825H3.087a.5.5 0 0 0-.38.825l4.913 5.732a.5.5 0 0 0 .705.054l.055-.054z" fill="currentColor"/></symbol><use xlink:href="#caret_down_fill-symbol" y="249" width="16" height="16"/><view id="caret_down_fill" viewBox="0 249 16 16"/><symbol id="caret_up_fill-symbol" viewBox="0 0 16 16"><title>caret_up_fill</title><path d="m8.38 4.443 4.913 5.732a.5.5 0 0 1-.38.825H3.087a.5.5 0 0 1-.38-.825L7.62 4.443a.5.5 0 0 1 .705-.054l.055.054z" fill="currentColor"/></symbol><use xlink:href="#caret_up_fill-symbol" y="265" width="16" height="16"/><view id="caret_up_fill" viewBox="0 265 16 16"/><symbol id="check-symbol" viewBox="0 0 22 22"><title>check</title><path d="m8.818 15.25-4.147-4.146a.502.502 0 0 1 0-.707.502.502 0 0 1 .708 0l3.798 3.797L16.62 6.75a.502.502 0 0 1 .707 0 .502.502 0 0 1 0 .707L9.535 15.25a.497.497 0 0 1-.31.144h-.096a.497.497 0 0 1-.31-.144z"/></symbol><use xlink:href="#check-symbol" y="281" width="22" height="22"/><view id="check" viewBox="0 281 22 22"/><symbol id="chevron_left_point-symbol" viewBox="0 0 9 13"><title>chevron_left_point</title><path d="M7.71 1.5 7 .79l-5 5-.71.71.71.71 5 5 .71-.71-5-5 5-5z"/></symbol><use xlink:href="#chevron_left_point-symbol" y="303" width="9" height="13"/><view id="chevron_left_point" viewBox="0 303 9 13"/><symbol id="chevron_left-symbol" viewBox="0 0 11 20"><title>chevron_left</title><path d="m3.55 10 5.29-5.29-.71-.7L2.14 10l6.01 6.01.71-.7L3.55 10z"/></symbol><use xlink:href="#chevron_left-symbol" y="316" width="11" height="20"/><view id="chevron_left" viewBox="0 316 11 20"/><symbol id="close_circle_s-symbol" viewBox="0 0 16 16"><title>close_circle_s</title><path d="M8 1a7 7 0 1 0 7 7 7 7 0 0 0-7-7zm3.71 10-.71.71-3-3-3 3-.71-.71 3-3-3-3L5 4.29l3 3 3-3 .71.71-3 3z"/></symbol><use xlink:href="#close_circle_s-symbol" y="336" width="16" height="16"/><view id="close_circle_s" viewBox="0 336 16 16"/><symbol id="close_circle-symbol" viewBox="0 0 22 22"><title>close_circle</title><path d="M11 1a10 10 0 1 0 10 10A10 10 0 0 0 11 1zm4.71 14-.71.71-4-4-4 4-.71-.71 4-4-4-4L7 6.29l4 4 4-4 .71.71-4 4z"/></symbol><use xlink:href="#close_circle-symbol" y="352" width="22" height="22"/><view id="close_circle" viewBox="0 352 22 22"/><symbol id="close_s-symbol" viewBox="0 0 16 16"><title>close_s</title><path d="M12.71 4 12 3.29l-4 4-4-4-.71.71 4 4-4 4 .71.71 4-4 4 4 .71-.71-4-4 4-4z"/></symbol><use xlink:href="#close_s-symbol" y="374" width="16" height="16"/><view id="close_s" viewBox="0 374 16 16"/><symbol id="close-symbol" viewBox="0 0 22 22"><title>close</title><path d="M18.71 4 18 3.29l-7 7-7-7-.71.71 7 7-7 7 .71.71 7-7 7 7 .71-.71-7-7 7-7z"/></symbol><use xlink:href="#close-symbol" y="390" width="22" height="22"/><view id="close" viewBox="0 390 22 22"/><symbol id="comment_reply-symbol" viewBox="0 0 8 10"><title>comment_reply</title><path d="M1 9.04V0H0v10h8v-.96H1z"/></symbol><use xlink:href="#comment_reply-symbol" y="412" width="8" height="10"/><view id="comment_reply" viewBox="0 412 8 10"/><symbol id="comment_s-symbol" viewBox="0 0 16 16"><title>comment_s</title><path d="M11 1c2.21 0 4 1.79 4 4v4c0 2.21-1.79 4-4 4H9.5L8 15l-1.5-2H5c-2.21 0-4-1.79-4-4V5c0-2.21 1.79-4 4-4h6zm0 1H5a3 3 0 0 0-2.995 2.824L2 5v4a3 3 0 0 0 2.824 2.995L5 12h2l1 1.333L9 12h2a3 3 0 0 0 2.995-2.824L14 9V5a3 3 0 0 0-2.824-2.995L11 2zM6 6a1 1 0 1 1 0 2 1 1 0 0 1 0-2zm4 0a1 1 0 1 1 0 2 1 1 0 0 1 0-2z" fill="currentColor"/></symbol><use xlink:href="#comment_s-symbol" y="422" width="16" height="16"/><view id="comment_s" viewBox="0 422 16 16"/><symbol id="comment-symbol" viewBox="0 0 16 16"><title>comment</title><path d="M12 2a2 2 0 0 1 2 2v5a2 2 0 0 1-2 2H8.24l-.24.23-2 1.63V11H4a2 2 0 0 1-2-2V4a2 2 0 0 1 2-2h8m0-1H4a3 3 0 0 0-3 3v5a3 3 0 0 0 3 3h1v3l3.6-3H12a3 3 0 0 0 3-3V4a3 3 0 0 0-3-3z"/></symbol><use xlink:href="#comment-symbol" y="438" width="16" height="16"/><view id="comment" viewBox="0 438 16 16"/><symbol id="comments-symbol" viewBox="0 0 16 16"><title>comments</title><path d="M13 1H5a2 2 0 0 0-2 2v2a2 2 0 0 0-2 2v4a2 2 0 0 0 2 2h1v2l2.5-2H11a2 2 0 0 0 2-2V9a2 2 0 0 0 2-2V3a2 2 0 0 0-2-2zm-1 10a1 1 0 0 1-1 1H6.15l-.27.22-.88.7V12H3a1 1 0 0 1-1-1V7a1 1 0 0 1 1-1v1a2 2 0 0 0 2 2h7zm2-4a1 1 0 0 1-1 1H5a1 1 0 0 1-1-1V3a1 1 0 0 1 1-1h8a1 1 0 0 1 1 1z"/></symbol><use xlink:href="#comments-symbol" y="454" width="16" height="16"/><view id="comments" viewBox="0 454 16 16"/><symbol id="count_s-symbol" viewBox="0 0 16 16"><title>count_s</title><path d="M8 2c2.946 0 5.612 2 8 6-2.388 4-5.054 6-8 6-2.946 0-5.612-2-8-6 2.388-4 5.054-6 8-6zm0 1C5.618 3 3.373 4.576 1.265 7.856L1.174 8l.09.144c2.04 3.175 4.21 4.753 6.506 4.851L8 13c2.382 0 4.627-1.576 6.735-4.856l.09-.144-.09-.144c-2.04-3.175-4.208-4.753-6.505-4.851L8 3zm0 2a3 3 0 1 1 0 6 3 3 0 0 1 0-6zm0 1a2 2 0 1 0-.001 3.999A2 2 0 0 0 8 6z" fill="currentColor"/></symbol><use xlink:href="#count_s-symbol" y="470" width="16" height="16"/><view id="count_s" viewBox="0 470 16 16"/><symbol id="emoticon-symbol" viewBox="0 0 22 22"><title>emoticon</title><path d="M11 3a8 8 0 1 1-8 8 8 8 0 0 1 8-8m0-1a9 9 0 1 0 9 9 9 9 0 0 0-9-9z"/><circle cx="8" cy="8" r="1"/><circle cx="14" cy="8" r="1"/><path d="M13.82 12a3 3 0 0 1-5.64 0h-1a4 4 0 0 0 7.72 0z"/></symbol><use xlink:href="#emoticon-symbol" y="486" width="22" height="22"/><view id="emoticon" viewBox="0 486 22 22"/><symbol id="facebook-symbol" viewBox="0 0 32 32"><title>facebook</title><path d="M31 16.09C31 7.758 24.285 1 16 1S1 7.756 1 16.09C1 23.625 6.487 29.868 13.658 31V20.452h-3.81V16.09h3.81v-3.325c0-3.782 2.24-5.87 5.665-5.87 1.642 0 3.357.293 3.357.293v3.715h-1.89c-1.864 0-2.445 1.163-2.445 2.356v2.83h4.161l-.665 4.363h-3.496V31C25.514 29.867 31 23.624 31 16.091" fill="#386DB4" fill-rule="evenodd"/></symbol><use xlink:href="#facebook-symbol" y="508" width="32" height="32"/><view id="facebook" viewBox="0 508 32 32"/><symbol id="filter-symbol" viewBox="0 0 22 22"><title>filter</title><path d="M6 17a1 1 0 0 1-2 0v-1H2v-1h2v-1a1 1 0 0 1 2 0v3zm14-2v1H8v-1h12zm-3-7a1 1 0 0 1 1 1v1h2v1h-2v1a1 1 0 0 1-2 0V9a1 1 0 0 1 1-1zm-3 2v1H2v-1h12zm-4-7a1 1 0 0 1 1 1v3a1 1 0 0 1-2 0V6H2V5h7V4a1 1 0 0 1 1-1zm10 2v1h-7V5h7z"/></symbol><use xlink:href="#filter-symbol" y="540" width="22" height="22"/><view id="filter" viewBox="0 540 22 22"/><symbol id="globe-symbol" viewBox="0 0 16 16"><title>globe</title><path d="M8 1a7 7 0 1 1 0 14A7 7 0 0 1 8 1zm1.664 10.111H6.336c.124.532.28 1.019.462 1.445C7.217 13.533 7.69 14 8 14c.31 0 .783-.467 1.202-1.444.183-.426.338-.913.462-1.445zm-4.352 0H2.869a6.014 6.014 0 0 0 3.421 2.642c-.414-.67-.752-1.58-.978-2.641zm7.819 0h-2.443c-.226 1.062-.564 1.971-.979 2.643a6.018 6.018 0 0 0 3.422-2.642zm-7.96-5.445h-2.7A5.981 5.981 0 0 0 2 8c0 .828.168 1.616.47 2.333l2.7.001C5.06 9.604 5 8.818 5 8c0-.818.06-1.604.17-2.334zm4.646 0H6.183A14.552 14.552 0 0 0 6 8c0 .816.064 1.606.183 2.335h3.634C9.936 9.605 10 8.816 10 8c0-.816-.064-1.606-.183-2.335zm3.712 0h-2.7C10.94 6.396 11 7.182 11 8c0 .818-.06 1.604-.17 2.334h2.7a6.03 6.03 0 0 0 0-4.667zm-7.238-3.42-.024.008A6.015 6.015 0 0 0 2.87 4.888h2.443c.226-1.061.564-1.97.979-2.642zM8 2c-.31 0-.783.467-1.202 1.444a8.696 8.696 0 0 0-.462 1.445h3.328a8.696 8.696 0 0 0-.462-1.445c-.39-.912-.829-1.38-1.138-1.438L8 2zm1.71.247.025.042c.403.667.732 1.56.953 2.6h2.443A6.014 6.014 0 0 0 9.71 2.246z"/></symbol><use xlink:href="#globe-symbol" y="562" width="16" height="16"/><view id="globe" viewBox="0 562 16 16"/><symbol id="like_fill_s-symbol" viewBox="0 0 16 16"><title>like_fill_s</title><path d="M16 5.34a4.43 4.43 0 0 0-8-2.63A4.42 4.42 0 0 0 .42 7.19C2 11.12 8 15.09 8 15.09s6-4 7.58-7.9A4.44 4.44 0 0 0 16 5.34z"/></symbol><use xlink:href="#like_fill_s-symbol" y="578" width="16" height="16"/><view id="like_fill_s" viewBox="0 578 16 16"/><symbol id="like_fill-symbol" viewBox="0 0 22 22"><title>like_fill</title><path d="M20 8a5 5 0 0 0-9-3 5 5 0 0 0-9 3 4.81 4.81 0 0 0 .47 2.08C4.3 14.52 11 19 11 19s6.7-4.48 8.53-8.92A4.81 4.81 0 0 0 20 8z"/></symbol><use xlink:href="#like_fill-symbol" y="594" width="22" height="22"/><view id="like_fill" viewBox="0 594 22 22"/><symbol id="like_s-symbol" viewBox="0 0 16 16"><title>like_s</title><path d="M11.56 1.91A3.44 3.44 0 0 1 15 5.34a3.53 3.53 0 0 1-.34 1.47c-1.21 2.93-5.19 6-6.66 7.06-1.47-1.06-5.45-4.14-6.68-7.1A3.49 3.49 0 0 1 1 5.34a3.44 3.44 0 0 1 6.2-2L8 4.38l.8-1.08a3.43 3.43 0 0 1 2.76-1.39m0-1A4.41 4.41 0 0 0 8 2.71 4.42 4.42 0 0 0 .42 7.19C2 11.12 8 15.09 8 15.09s6-4 7.58-7.9a4.4 4.4 0 0 0-4-6.28z"/></symbol><use xlink:href="#like_s-symbol" y="616" width="16" height="16"/><view id="like_s" viewBox="0 616 16 16"/><symbol id="like-symbol" viewBox="0 0 22 22"><title>like</title><path class="cls-1" d="M15 4a4 4 0 0 1 4 4 4.12 4.12 0 0 1-.39 1.7c-1.4 3.39-6 6.92-7.61 8.08-1.6-1.16-6.21-4.69-7.62-8.11A4 4 0 0 1 7 4a4 4 0 0 1 3.2 1.62L11 6.7l.8-1.08A4 4 0 0 1 15 4m0-1a5 5 0 0 0-4 2 5 5 0 0 0-9 3 4.81 4.81 0 0 0 .47 2.08C4.3 14.52 11 19 11 19s6.7-4.48 8.53-8.92A4.81 4.81 0 0 0 20 8a5 5 0 0 0-5-5z" data-name="like_off_outline stroke"/></symbol><use xlink:href="#like-symbol" y="632" width="22" height="22"/><view id="like" viewBox="0 632 22 22"/><symbol id="list_card-symbol" viewBox="0 0 22 22"><title>list_card</title><path d="M19.5 18a.5.5 0 0 1 0 1h-17a.5.5 0 0 1 0-1h17zM19 3a1 1 0 0 1 1 1v10a1 1 0 0 1-1 1H3a1 1 0 0 1-1-1V4a1 1 0 0 1 1-1h16zm0 1H3v10h16V4z" fill="currentColor"/></symbol><use xlink:href="#list_card-symbol" y="654" width="22" height="22"/><view id="list_card" viewBox="0 654 22 22"/><symbol id="list_classic-symbol" viewBox="0 0 22 22"><title>list_classic</title><path d="M19 12a1 1 0 0 1 1 1v5a1 1 0 0 1-1 1H3a1 1 0 0 1-1-1v-5a1 1 0 0 1 1-1h16zm0 1H3v5h16v-5zm0-10a1 1 0 0 1 1 1v5a1 1 0 0 1-1 1H3a1 1 0 0 1-1-1V4a1 1 0 0 1 1-1h16zm0 1H3v5h16V4z" fill="currentColor"/></symbol><use xlink:href="#list_classic-symbol" y="676" width="22" height="22"/><view id="list_classic" viewBox="0 676 22 22"/><symbol id="list_compact-symbol" viewBox="0 0 22 22"><title>list_compact</title><path d="M19 15a1 1 0 0 1 1 1v2a1 1 0 0 1-1 1H3a1 1 0 0 1-1-1v-2a1 1 0 0 1 1-1h16zm0 1H3v2h16v-2zm0-7a1 1 0 0 1 1 1v2a1 1 0 0 1-1 1H3a1 1 0 0 1-1-1v-2a1 1 0 0 1 1-1h16zm0 1H3v2h16v-2zm0-7a1 1 0 0 1 1 1v2a1 1 0 0 1-1 1H3a1 1 0 0 1-1-1V4a1 1 0 0 1 1-1h16zm0 1H3v2h16V4z" fill="currentColor"/></symbol><use xlink:href="#list_compact-symbol" y="698" width="22" height="22"/><view id="list_compact" viewBox="0 698 22 22"/><symbol id="list-symbol" viewBox="0 0 22 22"><title>list</title><path d="M7 4h13v1H7zm0 6h13v1H7zm0 6h13v1H7z"/><circle cx="3.5" cy="4.5" r="1.5"/><circle cx="3.5" cy="16.5" r="1.5"/><circle cx="3.5" cy="10.5" r="1.5"/></symbol><use xlink:href="#list-symbol" y="720" width="22" height="22"/><view id="list" viewBox="0 720 22 22"/><symbol id="more-symbol" viewBox="0 0 16 16"><title>more</title><path d="M3 6.5a1.5 1.5 0 1 1 0 3 1.5 1.5 0 0 1 0-3zm5 0a1.5 1.5 0 1 1 0 3 1.5 1.5 0 0 1 0-3zm5 0a1.5 1.5 0 1 1 0 3 1.5 1.5 0 0 1 0-3z"/></symbol><use xlink:href="#more-symbol" y="742" width="16" height="16"/><view id="more" viewBox="0 742 16 16"/><symbol id="new-symbol" viewBox="0 0 8 16"><title>new</title><path d="M2 5.6V12H1V4h1l4 6.4V4h1v8H6L2 5.6z" fill="currentColor" fill-rule="evenodd"/></symbol><use xlink:href="#new-symbol" y="758" width="8" height="16"/><view id="new" viewBox="0 758 8 16"/><symbol id="picture-symbol" viewBox="0 0 16 16"><title>picture</title><path d="M13 2c1.05 0 1.918.82 1.994 1.851L15 4v8c0 1.05-.82 1.918-1.851 1.994L13 14H3c-1.05 0-1.918-.82-1.994-1.851L1 12V4c0-1.05.82-1.918 1.851-1.994L3 2h10zm-1.908 6.609-8.686 4.195c.133.099.29.165.463.187L3 13h10a1 1 0 0 0 .993-.883L14 12v-.931l-2.908-2.46zM13 3H3a1 1 0 0 0-.993.883L2 4v7.949l9.328-4.531L14 9.597V4a1 1 0 0 0-.883-.993L13 3zM6 4a2 2 0 1 1-.001 4.001A2 2 0 0 1 6 4zm0 1a1 1 0 1 0 0 2 1 1 0 0 0 0-2z" fill="currentColor" fill-rule="evenodd"/></symbol><use xlink:href="#picture-symbol" y="774" width="16" height="16"/><view id="picture" viewBox="0 774 16 16"/><symbol id="play-symbol" viewBox="0 0 23 24"><title>play</title><path fill-rule="evenodd" clip-rule="evenodd" d="M2.741 0C1.418 0 .5 1.044.5 2.827v18.344C.5 22.956 1.418 24 2.741 24c.516 0 1.093-.158 1.701-.494l16.93-9.333c2.168-1.194 2.168-3.152 0-4.346L4.442.494C3.834.16 3.257 0 2.741 0Z"/></symbol><use xlink:href="#play-symbol" y="790" width="23" height="24"/><view id="play" viewBox="0 790 23 24"/><symbol id="recommend-down_l-symbol" viewBox="0 0 50 50"><title>recommend-down_l</title><path d="M42.325 36.15c.373 0 .675.303.675.676v2.5a.675.675 0 0 1-.675.674h-2.42a.676.676 0 0 1-.676-.675v-2.499c0-.373.303-.676.676-.676h2.42zm-1.859-14.136c1.705 1.74.346 3.329.032 3.652l-.045.044-.016.015-3.47 3.542v2.438h1.222c.252 0 .456.204.456.455v1.553l1.816 1.854-1.394.184c-.213.024-.26.218-.27.266l-.001.01-.138 1.381-1.816-1.854H35.33a.457.457 0 0 1-.457-.456V33.84h-2.386l-3.47 3.542-.035.038-.06.061c-.376.365-1.801 1.536-3.385.082l-.155-.15c-2.143-2.188.636-4.46.682-4.273-1.189 1.833.827 2.732 1.451 2.095l1.894-1.933.354-.362.922-.94-.001-3.905c0-.368.299-.667.668-.667h3.81l.922-.94.354-.363 1.894-1.933c.624-.637-.256-2.695-2.052-1.48-.184-.048 2.042-2.886 4.185-.698zm-5.715 7.195H32.9a.471.471 0 0 0-.471.47v1.909c0 .26.21.472.47.472h1.85c.26 0 .472-.211.472-.472V29.68a.471.471 0 0 0-.471-.471zm-5.86-7.807a158.84 158.84 0 0 0 3.939 4.236l.4.411-3.565.336-.33 3.641a325.703 325.703 0 0 0-6.595-6.321l-.303-.28 2.556-.8 3.019 1.738-.9-2.403 1.78-.558zm-7.973 1.24-2.06 1.689-1.793-1.483 3.852-.206zM14.515 11s2.556 1.094 7.467 3.228l.347.151.043 1.48-4.33.611 4.416 2.38.087 3.004a624.5 624.5 0 0 0-10.693-2.184l-.004-.001L7 13.354 14.515 11zm13.593 6.372.66 2.234H24.17l3.938-2.234zM24 12.296l3.515 1.412-3.075 4.125-.44-5.537z" fill-rule="evenodd"/></symbol><use xlink:href="#recommend-down_l-symbol" y="814" width="50" height="50"/><view id="recommend-down_l" viewBox="0 814 50 50"/><symbol id="recommend-down_s-symbol" viewBox="0 0 22 22"><title>recommend-down_s</title><path d="M20.305 8.606c.923.968.646 1.875.334 2.397l-.094.144-.089.12-.077.092-1.997 2.098v1.682l1.027 1.078h.83c.34 0 .62.25.668.575l.007.1v1.349c0 .339-.25.62-.575.668l-.1.007h-1.35a.675.675 0 0 1-.668-.575l-.007-.1v-.906l-.968-1.016h-1.78l-1.962 2.063-.122.115-.054.045-.126.097c-.482.345-1.386.717-2.355-.3-1.052-1.107-.515-2.241-.014-2.847l.129-.146c.02-.022.042-.043.062-.063l.114-.106.051-.042.086-.06c.049-.03.08-.039.083-.022-.889 1.409.618 2.1 1.085 1.61l1.667-1.751v-2.415c0-.335.247-.612.569-.66l.098-.007h2.46l1.473-1.55c.467-.49-.19-2.073-1.533-1.138-.02-.005-.003-.052.042-.123l.068-.098.045-.055.107-.122.132-.131c.571-.533 1.667-1.13 2.734-.007zm-3.552 4.44h-1.015a.471.471 0 0 0-.463.386l-.008.085v1.115c0 .231.167.423.386.463l.085.008h1.015a.472.472 0 0 0 .465-.386l.007-.085v-1.115a.471.471 0 0 0-.472-.471zm-3.448-4.773.377.432.77.87c.387.43.769.848 1.125 1.229l.3.317-2.069.057a.378.378 0 0 0-.36.302l-.008.075-.008 2.128-.691-.7-.878-.875-1.019-1.001-.975-.945-.538-.513 1.574-.545 1.813 1.043-.509-1.494 1.096-.38zm-4.37 1.022L6.909 11l-1.79-1.526 3.816-.179zM.999 3.188 5.265 2l4.517 1.96.045.812-2.474.003L9.92 6.413l.092 1.65-4.789-1.056-1.36-.288L.998 3.19zm13.51 2.454.505 1.761h-3.523l3.017-1.76zM10.934 2l2.784 1.162-2.415 3.344L10.935 2z" fill="#9E9E9E" fill-rule="evenodd"/></symbol><use xlink:href="#recommend-down_s-symbol" y="864" width="22" height="22"/><view id="recommend-down_s" viewBox="0 864 22 22"/><symbol id="recommend-fill-symbol" viewBox="0 0 158 56"><title>recommend-fill</title><path d="M155.994.5A1.502 1.502 0 0 1 157.5 2v52a1.506 1.506 0 0 1-1.506 1.5H20.631c-.486 0-.943-.234-1.226-.629l-18.625-26a1.49 1.49 0 0 1 0-1.742l18.625-26c.283-.395.74-.629 1.226-.629z" fill-rule="evenodd"/></symbol><use xlink:href="#recommend-fill-symbol" y="886" width="158" height="56"/><view id="recommend-fill" viewBox="0 886 158 56"/><symbol id="recommend-same_s-symbol" viewBox="0 0 22 22"><title>recommend-same_s</title><path d="m20 2-.787 4.326s-2.105 1.703-4.662 3.897a173.785 173.785 0 0 0-2.494 2.174c-.715.637-1.425 1.28-2.102 1.91-.282.262-.554.52-.819.773l-.392.379v.508l1.36 1.36-.063 1.374-1.376.068L7.3 17.404H5.833l-1.141 1.14v1.22c0 .11-.073.2-.173.228L4.457 20H2.235a.233.233 0 0 1-.226-.173L2 19.765v-2.221c0-.108.072-.2.171-.227l.063-.008h1.22l1.14-1.141v-1.47l-1.363-1.362.068-1.376 1.373-.064 1.36 1.36h.51a73.49 73.49 0 0 0 1.02-1.07c.417-.446.841-.909 1.266-1.379l.637-.71.596-.673c.648-.735 1.276-1.46 1.87-2.154 2.053-2.4 3.644-4.36 3.738-4.477l.005-.005L20 2zm-2.673 9.896 1.374.063.067 1.377-1.363 1.364v1.468l1.14 1.14h1.22c.108 0 .2.073.227.173l.008.063v2.22c0 .109-.073.2-.172.227l-.063.009h-2.222a.233.233 0 0 1-.226-.173l-.008-.063v-1.22l-1.142-1.14H14.7l-1.365 1.364-1.376-.067-.064-1.373 1.361-1.361v-.508a78.898 78.898 0 0 0-1.21-1.152 158.91 158.91 0 0 1 2.39-2.122c.233.248.46.489.686.723l.335.348h.51l1.36-1.36zm-1.666 2.776H15a.328.328 0 0 0-.328.328v.66c0 .182.147.329.328.329h.66a.328.328 0 0 0 .329-.328V15a.327.327 0 0 0-.328-.328zm-8.66 0h-.662l-.066.007a.327.327 0 0 0-.262.32v.662l.007.066c.03.15.162.262.321.262H7l.066-.007a.328.328 0 0 0 .262-.321V15l-.006-.066A.328.328 0 0 0 7 14.672zM2 2l4.325.788S7.95 4.795 10.069 7.27a156.29 156.29 0 0 1-2.62 2.953A240.645 240.645 0 0 0 2.794 6.33l-.005-.004L2 2z" fill="#D3A749" fill-rule="evenodd"/></symbol><use xlink:href="#recommend-same_s-symbol" y="942" width="22" height="22"/><view id="recommend-same_s" viewBox="0 942 22 22"/><symbol id="recommend-stroke-symbol" viewBox="0 0 158 56"><title>recommend-stroke</title><path d="M155.994.5A1.504 1.504 0 0 1 157.5 2v52a1.504 1.504 0 0 1-1.506 1.5H20.631c-.486 0-.943-.234-1.226-.629l-18.625-26a1.494 1.494 0 0 1 0-1.742l18.625-26c.283-.395.74-.629 1.226-.629z" fill="none" stroke="#000"/></symbol><use xlink:href="#recommend-stroke-symbol" y="964" width="158" height="56"/><view id="recommend-stroke" viewBox="0 964 158 56"/><symbol id="recommend-up_l-symbol" viewBox="0 0 50 50"><title>recommend-up_l</title><path d="m39.051 37.171.054.054H43v1.887h-1.818v2.042h-2.07V43h-1.886v-3.95l-.027-.026 1.852-1.852zm-4.154-4.154.997.998-1.852 1.85-.997-.996 1.852-1.852zm1.384 1.385.998.998-1.852 1.85-.997-.996 1.851-1.852zm-5.79-6.42-2.401.08-.08 2.4 2.296 2.297 2.4-.08.082-2.4-2.297-2.298zM7 7l8.34 2.862c.823 3.074 4.971 6.847 4.971 6.847 8.218 8.218 11.13 6.76 11.323 6.648l.01-.006a10.513 10.513 0 0 0-.83 1.67l-.12.326-5.175.174-.169 5.047a10.09 10.09 0 0 0-1.704.88l-.296.197.001-.001.006-.01c.111-.193 1.57-3.103-6.649-11.321 0 0-3.604-3.963-6.637-4.91l-.21-.061L7 7zm31.663 29.784-1.852 1.852-.998-.998 1.852-1.851.998.997zM34.51 32.63l-1.852 1.852-.01-.01c.067 1.678-.18 4.35-1.532 8.117 0 0-1.913-6.38-7.453-2.167 0 0 1.04-3.917-.84-7.4 0 0 1.188 1.08 2.985 3.042 1.797 1.963 4.202.277 2.792-2.239 0 0 .145-.128.29-.329l.061-.09-2.459-2.459.144-4.31 4.31-.145 2.46 2.46c.251-.163.42-.352.42-.352 2.515 1.41 4.201-.996 2.24-2.793-1.964-1.796-3.045-2.985-3.045-2.985 3.483 1.88 7.4.841 7.4.841-4.213 5.54 2.168 7.453 2.168 7.453-3.722 1.338-6.377 1.593-8.058 1.535l-.021-.021z" fill="#8C8C8C" fill-rule="evenodd"/></symbol><use xlink:href="#recommend-up_l-symbol" y="1020" width="50" height="50"/><view id="recommend-up_l" viewBox="0 1020 50 50"/><symbol id="recommend-up_s-symbol" viewBox="0 0 22 22"><title>recommend-up_s</title><path d="M15.551 8.824c1.25.601 2.651.525 3.55.375l.266-.049.228-.05.26-.066.18-.053c-1.528 1.929-1.136 3.07-.446 3.713l.147.126c.024.02.05.04.075.058l.153.106.077.048.153.087.149.075.14.063.131.053.217.076.17.047c-1.512.645-2.728.99-3.676 1.167l-.419.07c-.2.03-.386.051-.558.066l-.168.013-.003.03 1.802 1.801 3.021.124-.103 1.301-1.253.098-.11 1.408-1.428.113-.1 1.272-1.3.103-.12-3.059-1.785-1.783-.05.006c-.068 1.031-.37 2.615-1.318 4.837l-.05-.178-.058-.167-.082-.203-.069-.15-.082-.156-.094-.16c-.541-.855-1.669-1.705-3.82-.103l-.197.151.053-.179.067-.26.05-.228.048-.266c.15-.899.226-2.3-.375-3.55l.333.314.388.384.371.384.431.463.156.171c.939 1.042 2.337.102 1.91-1.225l-.045-.126-1.358-1.359.36-3.208 3.207-.359 1.397 1.397c1.363.496 2.351-.93 1.293-1.884l-.334-.306-.437-.412-.55-.543-.395-.418zm-1.714 3.721-1.145.128-.128 1.144 1.006 1.006 1.145-.128.128-1.144-1.006-1.006zM1 1l4.857 1.12c.141.935.809 1.917 1.42 2.648l.241.278.226.247.295.303.333.317a21.462 21.462 0 0 0 1.517 1.39l.389.31c.82.632 1.503 1.017 2.064 1.24l.25.092c.161.054.311.095.45.123l.2.035.184.02c.118.008.225.008.322.001l.138-.015.123-.022.158-.044.088-.033.107-.05.145-.099-.168.258c-.167.262-.31.52-.434.772l-.118.249-3.159.489-.476 3.08a8.41 8.41 0 0 0-1.296.804l.056-.074.031-.05.034-.063.035-.078.05-.142.014-.055.026-.12.018-.136c.007-.072.01-.149.009-.232l-.01-.175-.023-.192c-.144-.93-.822-2.407-2.949-4.589l-.261-.267-.208-.22-.172-.173-.212-.203-.247-.226-.136-.12-.292-.243c-.661-.535-1.497-1.082-2.311-1.262l-.188-.035L1 1z" fill="#9E9E9E" fill-rule="evenodd"/></symbol><use xlink:href="#recommend-up_s-symbol" y="1070" width="22" height="22"/><view id="recommend-up_s" viewBox="0 1070 22 22"/><symbol id="recommend-up-level2_l-symbol" viewBox="0 0 50 50"><title>recommend-up-level2_l</title><path d="m39.051 37.171.054.054H43v1.887h-1.818v2.042h-2.07V43h-1.886v-3.95l-.027-.026 1.852-1.852zm-6.03-14.349c3.483 1.88 7.4.841 7.4.841-4.213 5.54 2.168 7.453 2.168 7.453-3.722 1.338-6.377 1.593-8.058 1.535l-.021-.021-1.852 1.852-.01-.01c.067 1.678-.18 4.35-1.532 8.117 0 0-1.913-6.38-7.453-2.167 0 0 1.04-3.917-.84-7.4 0 0 1.188 1.08 2.985 3.042 1.797 1.963 4.202.277 2.792-2.239 0 0 .145-.128.29-.329l.061-.09-2.459-2.459.144-4.31 4.31-.145 2.46 2.46c.251-.163.42-.352.42-.352 2.515 1.41 4.201-.996 2.24-2.793-1.964-1.796-3.045-2.985-3.045-2.985zm4.645 12.964.998.998-1.852 1.852-.998-.998 1.852-1.852zm-1.385-1.384.998.997-1.852 1.852-.997-.997 1.851-1.852zm-1.384-1.385.997.998-1.852 1.85-.997-.996 1.852-1.852zM30.49 27.98l-2.401.08-.08 2.401 2.296 2.297 2.4-.08.082-2.4-2.297-2.298zM7 7l8.34 2.862c.823 3.074 4.971 6.847 4.971 6.847 8.218 8.218 11.13 6.76 11.323 6.648l.008-.006-.196.337c-.254.45-.461.897-.632 1.333l-.12.326-5.175.174-.169 5.047a10.09 10.09 0 0 0-1.704.88l-.296.197.001-.001.006-.01c.111-.193 1.57-3.103-6.649-11.321 0 0-3.604-3.963-6.637-4.91l-.21-.061L7 7zm8 16c-.556.834-.833 1.667-.833 2.5 0 .834.277 1.667.833 2.5-.833-.556-1.667-.833-2.5-.833s-1.667.277-2.5.833c.556-.833.833-1.666.833-2.5 0-.833-.277-1.666-.833-2.5.833.556 1.667.834 2.5.834s1.667-.278 2.5-.834zM26 6c-.667 1-1 2-1 3s.333 2 1 3c-1-.666-2-1-3-1s-2 .334-3 1c.667-1 1-2 1-3s-.333-2-1-3c1 .667 2 1 3 1s2-.333 3-1z" fill="#376FEE" fill-rule="evenodd"/></symbol><use xlink:href="#recommend-up-level2_l-symbol" y="1092" width="50" height="50"/><view id="recommend-up-level2_l" viewBox="0 1092 50 50"/><symbol id="recommend-up-level3_l-symbol" viewBox="0 0 50 50"><title>recommend-up-level3_l</title><path d="m37.048 22.055.07.346c.146.792.206 1.52.195 2.191 1.542.011 3.105.171 4.45.598 0 0-2.045-.256-4.5.216a7.231 7.231 0 0 1-.915 2.87c.944-.52 2.067-.653 2.923-.662h.208a8.053 8.053 0 0 1 1.134.087c-6.277.26-3.202 6.878-2.831 7.63l.035.07-.026-.005 1.254 1.648 2.06.47 1.157-1.155.738.737-1.276 1.275.537 3.83-3.886-.482L37.094 43l-.739-.737 1.155-1.156-.453-2.148-1.625-1.236c-.584-.291-7.197-3.451-7.645 2.542l-.016.271-.002-.01-.004-.029-.015-.104c-.07-.557-.253-2.577.596-4.12-.788.457-1.735.794-2.87.917-.44 2.285-.25 4.214-.22 4.47l.003.028c-.427-1.343-.587-2.906-.599-4.449a11.255 11.255 0 0 1-2.541-.264l.017.001c.15.007 1.283.05 2.525-.24.044-3.508.794-6.775.833-6.945l.002-.007 2.099.491 3.01.655c-.13-.245-.24-.463-.313-.61l-.06-.122-.036-.074s.353.166.8.397l-.665-3.058-.477-2.035s3.35-.79 6.954-.835c.29-1.24.248-2.373.24-2.524v-.013zM38.08 38.02l.5 2.37 2.133.265-.294-2.101-2.34-.534zm-10.06-6.18-.14.15c-1.184 1.335-1.86 2.933-2.237 4.444 1.56-.613 2.93-1.902 2.377-4.595zm3.555.682-.018.038a8.857 8.857 0 0 1-1.285 2.082c1.072-.368 2.577-.355 4.681.322-.725-.483-2.866-1.918-3.286-2.34a1.51 1.51 0 0 1-.092-.102zm3.138-2.319-.018.015a8.875 8.875 0 0 1-2.08 1.276c.03.026.057.051.08.075.421.42 1.857 2.58 2.34 3.312-.677-2.103-.69-3.606-.322-4.678zM17 29.833c-.556.834-.833 1.667-.833 2.5 0 .834.277 1.667.833 2.5-.833-.556-1.667-.833-2.5-.833s-1.667.277-2.5.833c.556-.833.833-1.666.833-2.5 0-.833-.277-1.666-.833-2.5.833.556 1.667.834 2.5.834s1.667-.278 2.5-.834zm.767-17.361S26.68 23.68 34.22 23.352l.293-.02-5.17 1.104v-.104l-6.846-1.834 1.893 6.788h.102l-1.102 5.172c.632-7.503-10.567-16.514-10.854-16.744l-.006-.004.376-4.805 4.862-.434zm6.654 11.893 3.897 1.469 1.024 3.452-3.506-.973-1.415-3.948zm12.085 1.209-.169.043c-1.52.4-3.113 1.107-4.43 2.333 2.695.554 3.985-.817 4.6-2.376zM7.018 7c.34.01 5.35.245 9.87 4.597l.247.241-4.968.328-.271 4.911c-4.58-4.581-4.88-9.71-4.895-10.06L7 7h.018zM36 10.833c-.667 1-1 2-1 3s.333 2 1 3c-1-.666-2-1-3-1s-2 .334-3 1c.667-1 1-2 1-3s-.333-2-1-3c1 .667 2 1 3 1s2-.333 3-1zm-10-3c-.444.667-.667 1.334-.667 2 0 .667.223 1.334.667 2-.667-.444-1.333-.666-2-.666s-1.333.222-2 .666c.444-.666.667-1.333.667-2 0-.666-.223-1.333-.667-2 .667.444 1.333.667 2 .667s1.333-.223 2-.667z" fill="#DC4141" fill-rule="evenodd"/></symbol><use xlink:href="#recommend-up-level3_l-symbol" y="1142" width="50" height="50"/><view id="recommend-up-level3_l" viewBox="0 1142 50 50"/><symbol id="recommend-up-level3_s-symbol" viewBox="0 0 22 22"><title>recommend-up-level3_s</title><path d="M18.799 9.538c.108.509.155.981.152 1.419.906.015 1.818.116 2.607.367l-.251.02-.412.051-.265.042-.3.053-.331.068-.357.084-.186.048-.387.11-.2.063a4.722 4.722 0 0 1-.293 1.004 6.31 6.31 0 0 1 .937-.376l.264-.077.227-.056.254-.052.135-.022c-2.209.552-2.54 2.132-2.485 3.216l.017.224.025.205.002-.001.284.53 1.508.137 1.331-1.33.925.925-1.46 1.46.121 2.97-3.019-.075-1.454 1.456-.924-.924 1.319-1.32-.115-1.563-.509-.273.011-.012-.1-.014-.215-.022c-1.046-.08-2.644.173-3.268 2.247l-.062.22.02-.125.053-.254.056-.227.036-.128.088-.28c.082-.244.19-.516.329-.793-.306.128-.64.23-1.003.294-.065.202-.122.398-.173.587l-.093.367-.075.344-.061.316-.047.283-.05.356-.041.435c-.251-.79-.353-1.7-.369-2.608a6.31 6.31 0 0 1-1.117-.093l-.293-.058.19.004.277-.006.235-.015.266-.027c.14-.017.287-.04.44-.07 0-.159.002-.317.007-.473l.02-.466.03-.454.04-.439.045-.419.05-.395.054-.368.079-.491.096-.52.096-.456 3.19.557.064.004-.005-.061-.557-3.191.455-.096.375-.07.465-.079.352-.053.383-.051.408-.049.43-.042.446-.035.23-.014.465-.02c.156-.005.314-.007.473-.007.066-.327.096-.633.11-.877l.009-.26-.004-.28zm-1.128 8.09.189 1.658 1.506.036-.06-1.48-1.635-.214zm-4.38-1.538-.1.133a8.904 8.904 0 0 0-1.087 2.037c.706-.376 1.263-1.032 1.188-2.17zm3.118-.768-.011.009a7.15 7.15 0 0 1-.66.367c-.1.204-.224.433-.374.67a4 4 0 0 1 .908-.139c.012-.328.06-.63.137-.907zM4.525 4.524 7.3 4.195l.307.376.26.303.333.37.257.278.285.296.31.313.336.323.356.33.187.167.387.334c1.652 1.385 3.776 2.689 5.83 2.569l.242-.02-2.964.716v-.059L9.56 9.562l.963 3.834h.057l-.715 2.962c.238-2.089-1.06-4.273-2.47-5.977l-.327-.385-.327-.365-.323-.346-.469-.477-.296-.288-.28-.263-.377-.342-.62-.529-.148-.118.296-2.744zm6.259 6.224 2.47.759.528 2.239-2.276-.494-.722-2.504zm7.519 1.317-.093.035a8.724 8.724 0 0 0-2.079 1.15c1.14.077 1.795-.48 2.172-1.185zM1.003 1.087 1 1l.14.004.219.015.308.034.25.038.28.053.31.07A8.892 8.892 0 0 1 6.48 3.38l.21.203-2.836.271-.236 2.802a9.066 9.066 0 0 1-2.347-4l-.081-.32a8.382 8.382 0 0 1-.034-.15l-.055-.28-.04-.246-.028-.213-.03-.36z" fill="#DC4141" fill-rule="evenodd"/></symbol><use xlink:href="#recommend-up-level3_s-symbol" y="1192" width="22" height="22"/><view id="recommend-up-level3_s" viewBox="0 1192 22 22"/><symbol id="reload-symbol" viewBox="0 0 16 16"><title>reload</title><path d="M14 8a6 6 0 1 1-1.54-4H10v1h4V1h-1v2.12A7 7 0 1 0 15 8z"/></symbol><use xlink:href="#reload-symbol" y="1214" width="16" height="16"/><view id="reload" viewBox="0 1214 16 16"/><symbol id="search_back-symbol" viewBox="0 0 22 22"><title>search_back</title><path d="M21 10H2.89L10 2.69 9.29 2 1 10.49l.01.01-.01.01L9.29 19l.71-.69L2.89 11H21v-1z"/></symbol><use xlink:href="#search_back-symbol" y="1230" width="22" height="22"/><view id="search_back" viewBox="0 1230 22 22"/><symbol id="search-symbol" viewBox="0 0 22 22"><title>search</title><path d="M9.5 3A6.5 6.5 0 1 1 3 9.5 6.51 6.51 0 0 1 9.5 3m0-1A7.5 7.5 0 1 0 17 9.5 7.5 7.5 0 0 0 9.5 2z"/><path d="m15.05 14.34-.71.71L19.29 20l.71-.71-4.95-4.95z"/></symbol><use xlink:href="#search-symbol" y="1252" width="22" height="22"/><view id="search" viewBox="0 1252 22 22"/><symbol id="setting_off-symbol" viewBox="0 0 16 16"><title>setting_off</title><path d="M9.033 1c.185 0 .355.102.442.265l.587 1.099c.657.24 1.26.593 1.787 1.033l1.247-.042a.502.502 0 0 1 .45.25l1.033 1.79a.5.5 0 0 1-.009.514l-.658 1.06a6.036 6.036 0 0 1 0 2.063l.658 1.059c.082.13.097.29.047.431l-.038.083-1.033 1.79a.5.5 0 0 1-.36.244l-.09.006-1.247-.042c-.526.44-1.13.793-1.787 1.033l-.587 1.1a.506.506 0 0 1-.35.256L9.032 15H6.967a.495.495 0 0 1-.391-.189l-.05-.076-.587-1.098a5.98 5.98 0 0 1-1.788-1.034l-1.247.042a.5.5 0 0 1-.397-.176l-.053-.074-1.033-1.79a.5.5 0 0 1-.032-.433l.04-.081.66-1.058a5.96 5.96 0 0 1 0-2.066l-.66-1.058a.501.501 0 0 1-.008-.514l1.033-1.79a.502.502 0 0 1 .45-.25l1.247.042a6.023 6.023 0 0 1 1.788-1.034l.586-1.098A.501.501 0 0 1 6.967 1h2.066zM8 5a3 3 0 1 0 0 6 3 3 0 0 0 0-6z"/></symbol><use xlink:href="#setting_off-symbol" y="1274" width="16" height="16"/><view id="setting_off" viewBox="0 1274 16 16"/><symbol id="setting_on-symbol" viewBox="0 0 16 16"><title>setting_on</title><path d="M9.033 1c.185 0 .355.102.442.265l.587 1.099c.657.24 1.26.593 1.787 1.033l1.247-.042a.502.502 0 0 1 .45.25l1.033 1.79a.5.5 0 0 1-.009.514l-.658 1.06a6.036 6.036 0 0 1 0 2.063l.658 1.059c.082.13.097.29.047.431l-.038.083-1.033 1.79a.5.5 0 0 1-.36.244l-.09.006-1.247-.042c-.526.44-1.13.793-1.787 1.033l-.587 1.1a.506.506 0 0 1-.35.256L9.032 15H6.967a.495.495 0 0 1-.391-.189l-.05-.076-.587-1.098a5.98 5.98 0 0 1-1.788-1.034l-1.247.042a.5.5 0 0 1-.397-.176l-.053-.074-1.033-1.79a.5.5 0 0 1-.032-.433l.04-.081.66-1.058a5.96 5.96 0 0 1 0-2.066l-.66-1.058a.501.501 0 0 1-.008-.514l1.033-1.79a.502.502 0 0 1 .45-.25l1.247.042a6.023 6.023 0 0 1 1.788-1.034l.586-1.098A.501.501 0 0 1 6.967 1h2.066zM8 5a3 3 0 1 0 0 6 3 3 0 0 0 0-6z" fill="currentColor"/></symbol><use xlink:href="#setting_on-symbol" y="1290" width="16" height="16"/><view id="setting_on" viewBox="0 1290 16 16"/><symbol id="share-symbol" viewBox="0 0 22 22"><title>share</title><path d="M3 17.766h16v-1H3v1zM15.46 3l3.535 3.536-.707.707-2.828 2.829-.707-.708 2.285-2.286H8a4.004 4.004 0 0 0-3.995 3.8l-.005.2V16H3v-4.922c0-2.75 2.25-5 5-5h9.124l-2.37-2.371L15.46 3z"/></symbol><use xlink:href="#share-symbol" y="1306" width="22" height="22"/><view id="share" viewBox="0 1306 22 22"/><symbol id="swipe_next-symbol" viewBox="0 0 22 22"><title>swipe_next</title><path d="M15.52 10.98 5.99 1.7l.73-.71 10.25 9.99L6.7 20.99l-.73-.7 9.55-9.31z"/><path d="M.97-4.01h21v30h-21z"/></symbol><use xlink:href="#swipe_next-symbol" y="1328" width="22" height="22"/><view id="swipe_next" viewBox="0 1328 22 22"/><symbol id="swipe_prev-symbol" viewBox="0 0 22 22"><title>swipe_prev</title><path d="m6.42 10.98 9.53-9.28-.72-.71-10.26 9.99 10.28 10.01.72-.7-9.55-9.31z"/><path class="cls-5" d="M-.03-4.01h21v30h-21z"/></symbol><use xlink:href="#swipe_prev-symbol" y="1350" width="22" height="22"/><view id="swipe_prev" viewBox="0 1350 22 22"/><symbol id="tag_info_fill-symbol" viewBox="0 0 22 22"><title>tag_info_fill</title><path d="M11 0a11 11 0 1 0 11 11A11 11 0 0 0 11 0zm1 17h-1.3v-1.7H12zm2.31-7.18a6.37 6.37 0 0 1-1 1.2c-.33.33-.59.59-.79.77a2.3 2.3 0 0 0-.44.55 1.88 1.88 0 0 0-.19.67c0 .26-.06.64-.07 1.13h-1a5.68 5.68 0 0 1 .08-1.24 2.85 2.85 0 0 1 .31-.89 3.33 3.33 0 0 1 .57-.77c.24-.25.53-.52.88-.83a4.39 4.39 0 0 0 .74-.93 2.21 2.21 0 0 0 .3-1.14 2.14 2.14 0 0 0-.19-.88 2.23 2.23 0 0 0-.49-.68 2.54 2.54 0 0 0-.73-.44 2.59 2.59 0 0 0-.88-.16 2.73 2.73 0 0 0-1.14.23A2.17 2.17 0 0 0 9.5 7a2.53 2.53 0 0 0-.5.94 3.62 3.62 0 0 0-.13 1.16h-1a4.76 4.76 0 0 1 .23-1.55 3.08 3.08 0 0 1 .72-1.18A3.13 3.13 0 0 1 10 5.61a4.11 4.11 0 0 1 1.54-.27 3.68 3.68 0 0 1 1.25.2 2.9 2.9 0 0 1 1 .58 2.81 2.81 0 0 1 .71.93 2.91 2.91 0 0 1 .25 1.25 2.84 2.84 0 0 1-.4 1.52z"/></symbol><use xlink:href="#tag_info_fill-symbol" y="1372" width="22" height="22"/><view id="tag_info_fill" viewBox="0 1372 22 22"/><symbol id="tag_info-symbol" viewBox="0 0 22 22"><title>tag_info</title><path d="M8.12 7.55a3.06 3.06 0 0 1 .71-1.18A3.13 3.13 0 0 1 10 5.61a4.11 4.11 0 0 1 1.54-.27 3.64 3.64 0 0 1 1.25.2 3 3 0 0 1 1 .58 2.8 2.8 0 0 1 1 2.18 2.84 2.84 0 0 1-.4 1.52 6.37 6.37 0 0 1-1 1.2c-.33.33-.59.59-.79.77a2.3 2.3 0 0 0-.44.55 2.11 2.11 0 0 0-.19.67c0 .26 0 .64-.06 1.13h-1A5.68 5.68 0 0 1 11 12.9a3.12 3.12 0 0 1 .31-.89 3.38 3.38 0 0 1 .58-.77c.24-.25.53-.52.87-.83a4.09 4.09 0 0 0 .74-.93 2.21 2.21 0 0 0 .3-1.14 2 2 0 0 0-.19-.88 2.08 2.08 0 0 0-.49-.68 2.54 2.54 0 0 0-.73-.44 2.59 2.59 0 0 0-.88-.16 2.73 2.73 0 0 0-1.14.23 2.17 2.17 0 0 0-.86.59 2.53 2.53 0 0 0-.51.94 3.62 3.62 0 0 0-.12 1.16h-1a4.76 4.76 0 0 1 .24-1.55zM10.71 17h1.34v-1.7h-1.34z"/><path d="M2.88.34h16.88V22H2.88z"/><path d="M11 1A10 10 0 1 1 1 11 10 10 0 0 1 11 1m0-1a11 11 0 1 0 11 11A11 11 0 0 0 11 0z"/></symbol><use xlink:href="#tag_info-symbol" y="1394" width="22" height="22"/><view id="tag_info" viewBox="0 1394 22 22"/><symbol fill="none" id="thumbnail_more-symbol" viewBox="0 0 16 16"><title>thumbnail_more</title><rect x="3.5" y="4.5" width="12" height="10" rx="1.5" stroke="#fff"/><path fill-rule="evenodd" clip-rule="evenodd" d="M0 3.5A2.5 2.5 0 0 1 2.5 1H9a.5.5 0 0 1 0 1H2.5A1.5 1.5 0 0 0 1 3.5v6a.5.5 0 0 1-1 0v-6Z" fill="#fff"/></symbol><use fill="none" xlink:href="#thumbnail_more-symbol" y="1416" width="16" height="16"/><view id="thumbnail_more" viewBox="0 1416 16 16"/><symbol id="top-symbol" viewBox="0 0 13 17"><title>top</title><path d="M0 0h13v1H0zm.5 8h1.41L6 3.91V17h1V3.91L11.09 8h1.41l-6-6-6 6z"/></symbol><use xlink:href="#top-symbol" y="1432" width="13" height="17"/><view id="top" viewBox="0 1432 13 17"/><symbol id="translate_off-symbol" viewBox="0 0 22 22"><title>translate_off</title><path d="M13 1a1 1 0 0 1 1 1v6h6a1 1 0 0 1 1 1v11a1 1 0 0 1-1 1H9a1 1 0 0 1-1-1v-6H2a1 1 0 0 1-1-1V2a1 1 0 0 1 1-1h11zm2.587 10.5h-1.543l-2.544 6h1.355l.584-1.434h2.544l.595 1.434H18.1l-2.513-6zm-.876 1.408.928 2.274h-1.866l.897-2.274h.041zM13 2H2v11h6.993L13 8.985V2zM7.912 3.568v1.104h2.68v.856h-.96C9.288 6.6 8.784 7.48 8.152 8.2c.742.634 1.678 1.027 2.406 1.286l.234.082-.512.92c-.968-.36-2.056-.968-2.8-1.616-.683.597-1.51 1.112-2.467 1.534l-.365.154-.52-.864c1.216-.424 2.032-.944 2.696-1.52-.533-.668-1.022-1.4-1.377-2.302l-.127-.346h-.984v-.856H6.96V3.568h.952zm.704 1.96H6.32c.288.832.736 1.464 1.176 2 .384-.434.73-.975 1.016-1.714l.104-.286z" fill="currentColor"/></symbol><use xlink:href="#translate_off-symbol" y="1449" width="22" height="22"/><view id="translate_off" viewBox="0 1449 22 22"/><symbol id="translate_on-symbol" viewBox="0 0 22 22"><title>translate_on</title><path d="M13 1a1 1 0 0 1 1 1v6h6a1 1 0 0 1 1 1v11a1 1 0 0 1-1 1H9a1 1 0 0 1-1-1v-6H2a1 1 0 0 1-1-1V2a1 1 0 0 1 1-1h11zm2.587 10.5h-1.543l-2.544 6h1.355l.584-1.434h2.544l.595 1.434H18.1l-2.513-6zm-.876 1.408.928 2.274h-1.866l.897-2.274h.041zM13 2H2v11h6.993L13 8.985V2zM7.912 3.568v1.104h2.68v.856h-.96C9.288 6.6 8.784 7.48 8.152 8.2c.742.634 1.678 1.027 2.406 1.286l.234.082-.512.92c-.968-.36-2.056-.968-2.8-1.616-.683.597-1.51 1.112-2.467 1.534l-.365.154-.52-.864c1.216-.424 2.032-.944 2.696-1.52-.533-.668-1.022-1.4-1.377-2.302l-.127-.346h-.984v-.856H6.96V3.568h.952zm.704 1.96H6.32c.288.832.736 1.464 1.176 2 .384-.434.73-.975 1.016-1.714l.104-.286z" fill="currentColor"/></symbol><use xlink:href="#translate_on-symbol" y="1471" width="22" height="22"/><view id="translate_on" viewBox="0 1471 22 22"/><symbol id="translate-symbol" viewBox="0 0 22 22"><title>translate</title><path d="M13 1a1 1 0 0 1 1 1v6h6a1 1 0 0 1 1 1v11a1 1 0 0 1-1 1H9a1 1 0 0 1-1-1v-6H2a1 1 0 0 1-1-1V2a1 1 0 0 1 1-1h11zm2.587 10.5h-1.543l-2.544 6h1.355l.584-1.434h2.544l.595 1.434H18.1l-2.513-6zm-.876 1.408.928 2.274h-1.866l.897-2.274h.041zM13 2H2v11h6.993L13 8.985V2zM7.912 3.568v1.104h2.68v.856h-.96C9.288 6.6 8.784 7.48 8.152 8.2c.742.634 1.678 1.027 2.406 1.286l.234.082-.512.92c-.968-.36-2.056-.968-2.8-1.616-.683.597-1.51 1.112-2.467 1.534l-.365.154-.52-.864c1.216-.424 2.032-.944 2.696-1.52-.533-.668-1.022-1.4-1.377-2.302l-.127-.346h-.984v-.856H6.96V3.568h.952zm.704 1.96H6.32c.288.832.736 1.464 1.176 2 .384-.434.73-.975 1.016-1.714l.104-.286z" fill="currentColor"/></symbol><use xlink:href="#translate-symbol" y="1493" width="22" height="22"/><view id="translate" viewBox="0 1493 22 22"/><symbol fill="none" id="twitter-symbol" viewBox="0 0 32 32"><title>twitter</title><path d="M18.569 13.856 28.62 2h-2.382l-8.727 10.294L10.54 2H2.5l10.541 15.567L2.5 30h2.382l9.216-10.871L21.46 30h8.04L18.568 13.856Zm-3.263 3.848-1.068-1.55L5.74 3.82H9.4l6.858 9.954 1.068 1.55 8.914 12.94h-3.658l-7.275-10.56Z" fill="#000"/></symbol><use fill="none" xlink:href="#twitter-symbol" y="1515" width="32" height="32"/><view id="twitter" viewBox="0 1515 32 32"/><symbol id="upload-symbol" viewBox="0 0 22 22"><title>upload</title><path d="M18 3c1.65 0 3 1.35 3 3v10c0 1.65-1.35 3-3 3H4c-1.65 0-3-1.35-3-3V6c0-1.65 1.35-3 3-3zm0 1H4c-1.103 0-2 .897-2 2v10c0 1.103.897 2 2 2h14c1.103 0 2-.897 2-2V6c0-1.103-.897-2-2-2zm-7 3a4 4 0 1 1 0 8 4 4 0 0 1 0-8zm0 1c-1.654 0-3 1.346-3 3s1.346 3 3 3 3-1.346 3-3-1.346-3-3-3zM6 6v1H4V6h2z"/></symbol><use xlink:href="#upload-symbol" y="1547" width="22" height="22"/><view id="upload" viewBox="0 1547 22 22"/><symbol id="url-symbol" viewBox="0 0 32 32"><title>url</title><path d="M6.287 22c2.998 0 4.498-1.648 4.498-4.946V10h-1.31v7.278c0 2.363-1.01 3.543-3.026 3.543-2.097 0-3.146-1.223-3.146-3.671V10H2v7.238C2 20.413 3.43 22 6.287 22zm8.799-.2v-5.051h1.181c.48 0 .89.112 1.23.337.34.225.723.689 1.148 1.395l1.998 3.319h1.569l-2.224-3.543c-.405-.653-.716-1.098-.934-1.335a2.388 2.388 0 0 0-.83-.573v-.033c1.758-.486 2.637-1.544 2.637-3.173 0-.973-.323-1.741-.967-2.301-.644-.562-1.513-.842-2.608-.842h-3.502v11.8h1.302zm1.95-6.253h-1.95V11.21h1.965c.788 0 1.39.18 1.808.537.418.358.628.858.628 1.499 0 .685-.226 1.239-.676 1.664-.451.425-1.042.637-1.775.637zM30 21.8v-1.187h-4.812V10h-1.302v11.8H30z"/></symbol><use xlink:href="#url-symbol" y="1569" width="32" height="32"/><view id="url" viewBox="0 1569 32 32"/><symbol id="vote_feed-symbol" viewBox="0 0 22 22"><title>vote_feed</title><path fill-rule="evenodd" clip-rule="evenodd" d="M5 3h12c.354 0 .649.194.827.471L20 7v10a2 2 0 0 1-2 2H4a2 2 0 0 1-2-2V7l2.133-3.47A.988.988 0 0 1 5 3Zm13.857 4-1.885-3H5.017L3.142 7h15.715ZM19 8H3v9a1 1 0 0 0 1 1h14a1 1 0 0 0 1-1V8ZM9 6h4V5H9v1Zm-.474 5.146 2.12 2.121 2.829-2.827.707.707-2.828 2.828-.707.707-2.828-2.829.707-.707Z"/></symbol><use xlink:href="#vote_feed-symbol" y="1601" width="22" height="22"/><view id="vote_feed" viewBox="0 1601 22 22"/><symbol id="vote-user-symbol" viewBox="0 0 22 22"><title>vote-user</title><path d="M11 3a5 5 0 0 1 2.305 9.438C15.802 13.415 17.662 15.94 18 19h-1c-.373-3.382-2.914-6-6-6s-5.627 2.618-6 6H4c.338-3.06 2.198-5.585 4.695-6.564A5 5 0 0 1 11 3zm0 1C8.795 4 7 5.794 7 8s1.795 4 4 4 4-1.794 4-4-1.795-4-4-4z" fill-rule="evenodd"/></symbol><use xlink:href="#vote-user-symbol" y="1623" width="22" height="22"/><view id="vote-user" viewBox="0 1623 22 22"/><symbol id="vote-symbol" viewBox="0 0 16 16"><title>vote</title><path d="M12.382 2c.379 0 .725.214.894.553L15 6v5a3 3 0 0 1-2.824 2.995L12 14H4a3 3 0 0 1-2.995-2.824L1 11V6l1.724-3.447A.998.998 0 0 1 3.618 2h8.764zM14 6.982H2v3.99l.003.146a2 2 0 0 0 1.847 1.876L4 13h7.971l.147-.003a2 2 0 0 0 1.876-1.847L14 11V6.982zm-3.525.758.707.707-3.535 3.535-2.828-2.828.707-.707 2.12 2.12 2.83-2.827zM12.382 3H3.618L2.126 5.981h11.746L12.382 3zM10 3.982v1H6v-1h4z" fill="currentColor"/></symbol><use xlink:href="#vote-symbol" y="1645" width="16" height="16"/><view id="vote" viewBox="0 1645 16 16"/><symbol id="write-symbol" viewBox="0 0 22 22"><title>write</title><path d="M19 18.5a.51.51 0 0 1-.5.5h-12a.51.51 0 0 1-.5-.5.5.5 0 0 1 .5-.5h12a.5.5 0 0 1 .5.5zM14.6 4 16 5.4l-9.73 9.75-2.1.85H4v-.11l.81-2.1L14.6 4m0-1a1 1 0 0 0-.71.3L4 13.18l-.88 2.29a1.15 1.15 0 0 0 .18 1.24.94.94 0 0 0 .7.29 1.42 1.42 0 0 0 .53-.11L6.82 16l9.9-9.9a1 1 0 0 0 0-1.42l-1.41-1.4A1 1 0 0 0 14.6 3z"/></symbol><use xlink:href="#write-symbol" y="1661" width="22" height="22"/><view id="write" viewBox="0 1661 22 22"/></svg>
